<?xml version="1.0" encoding="utf-8" standalone="yes"?>
<!DOCTYPE svg PUBLIC "-//W3C//DTD SVG 1.1//EN" "http://www.w3.org/Graphics/SVG/1.1/DTD/svg11.dtd">
<svg width="1032" height="681" viewBox="0 0 1032 681" style="fill:none;stroke:none;fill-rule:evenodd;clip-rule:evenodd;stroke-linecap:round;stroke-linejoin:round;stroke-miterlimit:1.5;" version="1.1" xmlns="http://www.w3.org/2000/svg" xmlns:xlink="http://www.w3.org/1999/xlink"><style class="text-font-style fontImports" data-font-family="Roboto">@import url('https://fonts.googleapis.com/css2?family=Roboto:wght@400;700&amp;display=block');</style><g id="items" style="isolation: isolate"><g id="blend" style="mix-blend-mode: normal"><g id="g-root-cp_4_g-4_v4v4gjd3f5e1-fill" data-item-order="-575630" transform="translate(266.0000305175781, 122.34197998046875)"><g id="cp_4_g-4_v4v4gjd3f5e1-fill" stroke="none" fill="#e0cb15"><g><path d="M 271.097369 76.8332L 237.734069 142.3453C 179.160869 148.9602 136.050069 203.788 142.688169 262.0235L 76.663169 228.3991L 10.309569 262.1909C 3.608969 131.9458 106.522169 16.9282 237.061269 10L 271.097369 76.8332Z"></path></g></g></g><g id="g-root-cp_3_g-3_qp1mc3d3f66b-fill" data-item-order="-575626" transform="translate(266.30999755859375, 340.74200439453125)"><g id="cp_3_g-3_qp1mc3d3f66b-fill" stroke="none" fill="#1eabda"><g><path d="M 227.9196 204.4341L 261.4334 138.6264C 203.4191 144.9059 149.0228 101.9139 142.3786 43.6244L 76.3537 10L 10 43.7918C 16.7158 174.333 131.5387 277.4367 261.7981 270.958L 227.9196 204.4341Z"></path></g></g></g><g id="g-root-cp_2_g-2_htem37d3f6z1-fill" data-item-order="-575622" transform="translate(484.22900390625, 349.48699951171875)"><g id="cp_2_g-2_htem37d3f6z1-fill" stroke="none" fill="#92bd39"><g><path d="M 10 195.689L 43.5138 129.8813C 102.0314 123.5473 145.3786 69.0832 139.1385 10.87L 204.4341 44.1231L 271.4382 10C 278.1439 140.5492 174.741 255.7042 43.8785 262.2129L 10 195.689Z"></path></g></g></g><g id="g-root-cp_1_g-1_ddl3yrd3f7rb-fill" data-item-order="-575618" transform="translate(493.06201171875, 122.012939453125)"><g id="cp_1_g-1_ddl3yrd3f7rb-fill" stroke="none" fill="#3cc583"><g><path d="M 44.036 77.162661L 10.6727 142.674861C 69.1073 136.075561 124.0032 179.542661 130.3063 238.343761L 195.602 271.596761L 262.606 237.473661C 255.8844 106.613161 140.5341 3.401561 10 10.329461L 44.036 77.162661Z"></path></g></g></g><g id="g-root-cp_0_g-0_ddl3yrd3f7rd-fill" data-item-order="-575614" transform="translate(409.9880065917969, 265)"><g id="cp_0_g-0_ddl3yrd3f7rd-fill" stroke="none" fill="#666666"><g><path d="M 10 106C 10.000003 159.019339 52.980667 202.000003 106.000003 202.000003C 159.019339 202.000003 202.000003 159.019339 202.000003 106.000003C 202.000003 52.980667 159.019339 10.000003 106.000003 10.000003C 52.980667 10.000003 10.000003 52.980667 10.000003 106.000003"></path></g></g></g><g id="g-root-tx_ai_2r2ojd3f66i-fill" data-item-order="0" transform="translate(314, 38)"><g id="tx_ai_2r2ojd3f66i-fill" stroke="none" fill="#484848"><g><text style="font: bold 25px Roboto, sans-serif; white-space: pre;" font-weight="bold" font-size="25px" font-family="Roboto, sans-serif"><tspan x="15.69" y="43" dominant-baseline="ideographic">AI開発とコーパス構築のサイクル</tspan></text></g></g></g><g id="g-root-ic_chec_8ye2xfd3nm6e-fill" data-item-order="0" transform="translate(361.9880065917969, 206)"></g><g id="g-root-ic_time_hyees3d3f75v-fill" data-item-order="0" transform="translate(607.9879760742188, 218)"></g><g id="g-root-tx__18koyfnd3f75t-fill" data-item-order="0" transform="translate(38, 266)"><g id="tx__18koyfnd3f75t-fill" stroke="none" fill="#e0cb15"><g><text style="font: bold 20px Roboto, sans-serif; white-space: pre;" font-weight="bold" font-size="20px" font-family="Roboto, sans-serif"><tspan x="16.59" y="34" dominant-baseline="ideographic">専門家による検証</tspan></text></g></g></g><g id="g-root-tx__v642mrd3f7kb-fill" data-item-order="0" transform="translate(758, 266)"><g id="tx__v642mrd3f7kb-fill" stroke="none" fill="#3cc583"><g><text style="font: bold 20px Roboto, sans-serif; white-space: pre;" font-weight="bold" font-size="20px" font-family="Roboto, sans-serif"><tspan x="12" y="34" dominant-baseline="ideographic">コーパスの増大</tspan></text></g></g></g><g id="g-root-tx__v9ux5fd3f5ky-fill" data-item-order="0" transform="translate(38, 302)"><g id="tx__v9ux5fd3f5ky-fill" stroke="none" fill="#46432d"><g><text style="font: 15px Roboto, sans-serif; white-space: pre;" font-size="15px" font-family="Roboto, sans-serif"><tspan x="17.15" y="28" dominant-baseline="ideographic">専門家がコーパスデータの質</tspan><tspan x="167" y="46" dominant-baseline="ideographic">を確保</tspan></text></g></g></g><g id="g-root-tx_ai_4jtiz7d3f7kc-fill" data-item-order="0" transform="translate(758, 302)"><g id="tx_ai_4jtiz7d3f7kc-fill" stroke="none" fill="#374840"><g><text style="font: 15px Roboto, sans-serif; white-space: pre;" font-size="15px" font-family="Roboto, sans-serif"><tspan x="12" y="31" dominant-baseline="ideographic">質の良いコーパスデータの構築</tspan></text></g></g></g><g id="g-root-tx_ai_m8ln4jd3t8g7-fill" data-item-order="0" transform="translate(469.988037109375, 331)"><g id="tx_ai_m8ln4jd3t8g7-fill" stroke="none" fill="#ffffff"><g><text style="font: bold 20px Roboto, sans-serif; white-space: pre;" font-weight="bold" font-size="20px" font-family="Roboto, sans-serif"><tspan x="16.35" y="34" dominant-baseline="ideographic">AI開発</tspan></text></g></g></g><g id="g-root-tx__4loy8jd3f6kn-fill" data-item-order="0" transform="translate(38, 398)"><g id="tx__4loy8jd3f6kn-fill" stroke="none" fill="#1eabda"><g><text style="font: bold 20px Roboto, sans-serif; white-space: pre;" font-weight="bold" font-size="20px" font-family="Roboto, sans-serif"><tspan x="12.2" y="34" dominant-baseline="ideographic">コーパス構築の容易化</tspan></text></g></g></g><g id="g-root-tx__1lua1jnd3f6kl-fill" data-item-order="0" transform="translate(758, 398)"><g id="tx__1lua1jnd3f6kl-fill" stroke="none" fill="#92bd39"><g><text style="font: bold 20px Roboto, sans-serif; white-space: pre;" font-weight="bold" font-size="20px" font-family="Roboto, sans-serif"><tspan x="12" y="34" dominant-baseline="ideographic">学習量の増加</tspan></text></g></g></g><g id="g-root-tx_ai_1qbchubd3f7yg-fill" data-item-order="0" transform="translate(38, 433.99993896484375)"><g id="tx_ai_1qbchubd3f7yg-fill" stroke="none" fill="#32444a"><g><text style="font: 15px Roboto, sans-serif; white-space: pre;" font-size="15px" font-family="Roboto, sans-serif"><tspan x="15.13" y="28" dominant-baseline="ideographic">改善されたAIが教師データ構築</tspan><tspan x="164" y="46" dominant-baseline="ideographic">を効率化</tspan></text></g></g></g><g id="g-root-ic_2_1cw54ybd3kttx-fill" data-item-order="0" transform="translate(344.9880065917969, 440.99993896484375)"></g><g id="g-root-tx_ai_v7zhw3d3f6km-fill" data-item-order="0" transform="translate(758, 433.99993896484375)"><g id="tx_ai_v7zhw3d3f6km-fill" stroke="none" fill="#424736"><g><text style="font: 15px Roboto, sans-serif; white-space: pre;" font-size="15px" font-family="Roboto, sans-serif"><tspan x="12" y="28" dominant-baseline="ideographic">AIモデルが質の高い教師データ</tspan><tspan x="12" y="46" dominant-baseline="ideographic">を学習</tspan></text></g></g></g><g id="g-root-ic_infr_dgphebd3hzpg-fill" data-item-order="0" transform="translate(589.9879760742188, 457.99993896484375)"></g><g id="g-root-cp_4_g-4_v4v4gjd3f5e1-stroke" data-item-order="-575630" transform="translate(266.0000305175781, 122.34197998046875)"><g id="cp_4_g-4_v4v4gjd3f5e1-stroke" fill="none" stroke-linecap="round" stroke-linejoin="round" stroke-miterlimit="4" stroke="#ffffff" stroke-width="2"><g><path d="M 271.097369 76.8332L 237.734069 142.3453C 179.160869 148.9602 136.050069 203.788 142.688169 262.0235L 76.663169 228.3991L 10.309569 262.1909C 3.608969 131.9458 106.522169 16.9282 237.061269 10L 271.097369 76.8332Z"></path></g></g></g><g id="g-root-cp_3_g-3_qp1mc3d3f66b-stroke" data-item-order="-575626" transform="translate(266.30999755859375, 340.74200439453125)"><g id="cp_3_g-3_qp1mc3d3f66b-stroke" fill="none" stroke-linecap="round" stroke-linejoin="round" stroke-miterlimit="4" stroke="#ffffff" stroke-width="2"><g><path d="M 227.9196 204.4341L 261.4334 138.6264C 203.4191 144.9059 149.0228 101.9139 142.3786 43.6244L 76.3537 10L 10 43.7918C 16.7158 174.333 131.5387 277.4367 261.7981 270.958L 227.9196 204.4341Z"></path></g></g></g><g id="g-root-cp_2_g-2_htem37d3f6z1-stroke" data-item-order="-575622" transform="translate(484.22900390625, 349.48699951171875)"><g id="cp_2_g-2_htem37d3f6z1-stroke" fill="none" stroke-linecap="round" stroke-linejoin="round" stroke-miterlimit="4" stroke="#ffffff" stroke-width="2"><g><path d="M 10 195.689L 43.5138 129.8813C 102.0314 123.5473 145.3786 69.0832 139.1385 10.87L 204.4341 44.1231L 271.4382 10C 278.1439 140.5492 174.741 255.7042 43.8785 262.2129L 10 195.689Z"></path></g></g></g><g id="g-root-cp_1_g-1_ddl3yrd3f7rb-stroke" data-item-order="-575618" transform="translate(493.06201171875, 122.012939453125)"><g id="cp_1_g-1_ddl3yrd3f7rb-stroke" fill="none" stroke-linecap="round" stroke-linejoin="round" stroke-miterlimit="4" stroke="#ffffff" stroke-width="2"><g><path d="M 44.036 77.162661L 10.6727 142.674861C 69.1073 136.075561 124.0032 179.542661 130.3063 238.343761L 195.602 271.596761L 262.606 237.473661C 255.8844 106.613161 140.5341 3.401561 10 10.329461L 44.036 77.162661Z"></path></g></g></g><g id="g-root-cp_0_g-0_ddl3yrd3f7rd-stroke" data-item-order="-575614" transform="translate(409.9880065917969, 265)"><g id="cp_0_g-0_ddl3yrd3f7rd-stroke" fill="none" stroke-linecap="round" stroke-linejoin="round" stroke-miterlimit="4" stroke="#ffffff" stroke-width="2"><g><path d="M 10 106C 10.000003 159.019339 52.980667 202.000003 106.000003 202.000003C 159.019339 202.000003 202.000003 159.019339 202.000003 106.000003C 202.000003 52.980667 159.019339 10.000003 106.000003 10.000003C 52.980667 10.000003 10.000003 52.980667 10.000003 106.000003"></path></g></g></g><g id="g-root-tx_ai_2r2ojd3f66i-stroke" data-item-order="0" transform="translate(314, 38)"></g><g id="g-root-ic_chec_8ye2xfd3nm6e-stroke" data-item-order="0" transform="translate(361.9880065917969, 206)"><g id="ic_chec_8ye2xfd3nm6e-stroke" fill="none" stroke-linecap="round" stroke-linejoin="round" stroke-miterlimit="4" stroke="#ffffff" stroke-width="2"><g><path d="M 32.809998 53.412498L 16.4025 53.412498C 13.57992 53.412498 11.29138 51.125076 11.29 48.302502L 11.29 16.360001C 11.29138 13.53742 13.57992 11.25 16.4025 11.25L 54.732498 11.25C 57.554672 11.25 59.842499 13.537825 59.842499 16.360001L 59.842499 32.970001M 11.29 21.23L 59.842499 21.23M 11.29 42.4375L 34.862499 42.4375M 11.29 31.849998L 59.842499 31.849998M 31.122501 21.23L 31.122501 53.412498M 45.34 21.23L 45.34 32.970001M 53.377499 68.75C 61.845402 68.75 68.709999 61.885406 68.709999 53.417496C 68.709999 44.949593 61.845402 38.084999 53.377499 38.084999C 44.909592 38.084999 38.044998 44.949593 38.044998 53.417496C 38.044998 61.885406 44.909592 68.749992 53.377499 68.749992ZM 59.935001 48.9725L 52.810001 58.870003C 52.497105 59.310001 52.005661 59.589123 51.467499 59.6325C 50.930672 59.670147 50.405155 59.46563 50.035 59.074997L 46.355 55.25"></path></g></g></g><g id="g-root-ic_time_hyees3d3f75v-stroke" data-item-order="0" transform="translate(607.9879760742188, 218)"><g id="ic_time_hyees3d3f75v-stroke" fill="none" stroke-linecap="round" stroke-linejoin="round" stroke-miterlimit="4" stroke="#ffffff" stroke-width="2"><g><path d="M 40.625 11.875C 40.625 18.875 50.625 24.625025 64.625 24.625025L 68.125 24.625025M 68.125 32.125248C 43.375 32.125248 24.375 23.62525 24.375 13.37525M 47.875248 38.875C 24.875124 40.875 12.625125 48.375248 12.625125 57.125248M 37.625 51.375C 29.375 54.625 24.375 59.375 24.375 64.375M 65.625 39.375L 68.125 39.375M 11.875 20.625C 11.875 29.375 24.375 36.875 47.875 38.875M 56.875 68.125C 63.088249 68.125 68.125 63.088249 68.125 56.875C 68.125 50.661751 63.088249 45.625 56.875 45.625C 50.661751 45.625 45.625 50.661751 45.625 56.875C 45.625 63.088249 50.661751 68.125 56.875 68.125ZM 56.875 45.625L 56.875 56.875L 68.066498 55.732498"></path></g></g></g><g id="g-root-tx__18koyfnd3f75t-stroke" data-item-order="0" transform="translate(38, 266)"></g><g id="g-root-tx__v642mrd3f7kb-stroke" data-item-order="0" transform="translate(758, 266)"></g><g id="g-root-tx__v9ux5fd3f5ky-stroke" data-item-order="0" transform="translate(38, 302)"></g><g id="g-root-tx_ai_4jtiz7d3f7kc-stroke" data-item-order="0" transform="translate(758, 302)"></g><g id="g-root-tx_ai_m8ln4jd3t8g7-stroke" data-item-order="0" transform="translate(469.988037109375, 331)"></g><g id="g-root-tx__4loy8jd3f6kn-stroke" data-item-order="0" transform="translate(38, 398)"></g><g id="g-root-tx__1lua1jnd3f6kl-stroke" data-item-order="0" transform="translate(758, 398)"></g><g id="g-root-tx_ai_1qbchubd3f7yg-stroke" data-item-order="0" transform="translate(38, 433.99993896484375)"></g><g id="g-root-ic_2_1cw54ybd3kttx-stroke" data-item-order="0" transform="translate(344.9880065917969, 440.99993896484375)"><g id="ic_2_1cw54ybd3kttx-stroke" fill="none" stroke-linecap="round" stroke-linejoin="round" stroke-miterlimit="4" stroke="#ffffff" stroke-width="2"><g><path d="M 21.875 36.250252C 27.39785 36.250252 31.875 34.45945 31.875 32.250298C 31.875 30.041176 27.39785 28.250299 21.875 28.250299C 16.35215 28.250299 11.875 30.041176 11.875 32.250298C 11.875 34.45945 16.35215 36.250252 21.875 36.250252ZM 11.875 32.249924L 11.875 48.25C 11.875 50.5 16.375 52.25 21.875 52.25C 27.375 52.25 31.875 50.5 31.875 48.25L 31.875 32.249924M 61.503502 18.43325C 65.038254 18.43325 67.903503 16.881176 67.903503 14.9666C 67.903503 13.052 65.038254 11.49992 61.503502 11.49992C 57.968998 11.49992 55.1035 13.052 55.1035 14.9666C 55.1035 16.881176 57.968998 18.43325 61.503502 18.43325ZM 55.1035 14.966725L 55.1035 24.033375C 55.1035 25.900051 58.036999 27.50005 61.503502 27.50005C 64.970253 27.50005 67.903503 25.900051 67.903503 24.033375L 67.903503 14.966725M 61.503502 39.200253C 65.038254 39.200253 67.903503 37.648003 67.903503 35.733498C 67.903503 33.818924 65.038254 32.26685 61.503502 32.26685C 57.968998 32.26685 55.1035 33.818924 55.1035 35.733498C 55.1035 37.648003 57.968998 39.200253 61.503502 39.200253ZM 55.1035 35.733749L 55.1035 44.800251C 55.1035 46.667 58.036999 48.266998 61.503502 48.266998C 64.970253 48.266998 67.903503 46.667 67.903503 44.800251L 67.903503 35.733749M 61.503502 59.43325C 65.038254 59.43325 67.903503 57.881248 67.903503 55.966499C 67.903503 54.052002 65.038254 52.5 61.503502 52.5C 57.968998 52.5 55.1035 54.052002 55.1035 55.966499C 55.1035 57.881248 57.968998 59.43325 61.503502 59.43325ZM 55.1035 55.966751L 55.1035 65.033501C 55.1035 66.900002 58.036999 68.5 61.503502 68.5C 64.970253 68.5 67.903503 66.900002 67.903503 65.033501L 67.903503 55.966751M 49.114498 19.25L 44.114498 19.25L 44.114498 60.75L 49.114498 60.75M 49.114498 40L 37.864498 40M 11.875 40.327751C 11.875 42.442249 16.199326 44.172001 21.87505 44.172001C 27.550751 44.172001 31.875074 42.442249 31.875074 40.327751"></path></g></g></g><g id="g-root-tx_ai_v7zhw3d3f6km-stroke" data-item-order="0" transform="translate(758, 433.99993896484375)"></g><g id="g-root-ic_infr_dgphebd3hzpg-stroke" data-item-order="0" transform="translate(589.9879760742188, 457.99993896484375)"><g id="ic_infr_dgphebd3hzpg-stroke" fill="none" stroke-linecap="round" stroke-linejoin="round" stroke-miterlimit="4" stroke="#ffffff" stroke-width="2"><g><path d="M 31.999973 38.625C 37.522751 38.625 42 36.38625 42 33.624874C 42 30.863449 37.522751 28.624876 31.999973 28.624876C 26.477125 28.624876 21.999975 30.863449 21.999975 33.624874C 21.999975 36.38625 26.477125 38.625 31.999973 38.625ZM 21.999975 33.624874L 21.999975 42.125C 21.999975 44.875 26.499975 47.124752 31.999973 47.124752M 21.999975 42.124752L 21.999975 50.624752C 21.999975 53.374748 26.499975 55.624752 31.999973 55.624752M 49 51.125C 54.523003 51.125 59 48.88625 59 46.125C 59 43.363499 54.523003 41.125 49 41.125C 43.477249 41.125 39 43.363499 39 46.125C 39 48.88625 43.477249 51.125 49 51.125ZM 39 46.125L 39 54.624748C 39 57.374748 43.5 59.624748 49 59.624748C 54.5 59.624748 59 57.374748 59 54.624748L 59 46.125M 39 54.624748L 39 63.124752C 39 65.874748 43.5 68.124756 49 68.124756C 54.5 68.124756 59 65.874748 59 63.124752L 59 54.624748M 66.133751 43.875C 67.37825 41.875 68.125 39.625 68.125 37.125C 68.125 30.375025 62.64925 24.875 55.929253 24.875C 53.44025 24.875 50.951252 25.625025 48.960251 27.125025C 47.218002 18.375025 39.750999 11.875 30.542027 11.875C 20.3374 11.875 11.875 20.375 11.875 30.625C 11.875 34.125 12.870575 37.375 14.612825 40.125"></path></g></g></g></g></g><path id="w1ut1iebc9ngui" d="M65.283 12.757a.35.35 0 0 0 .584.157l5.203-5.141-6.183 3.523.396 1.461zm-2.216-11.7a.35.35 0 0 0-.522.305v3.111l3.276-1.868-2.754-1.548zm3.728 2.105l-4.25 2.421v2.445l6.391-3.644-2.141-1.222zm4.708 3.303a.35.35 0 0 0 0-.609l-1.592-.9-7.365 4.199v1.782a.35.35 0 0 0 .523.305l8.435-4.777z M44.542 2.513c0-.433.355-.783.792-.783s.792.35.792.783-.355.783-.792.783-.792-.35-.792-.783zm59.171 0c0-.433.355-.783.792-.783s.792.35.792.783-.355.783-.792.783-.792-.35-.792-.783zm-85.951 7.636h-1.27v-.487c-.276.201-.864.609-1.881.609-1.202 0-2.274-.794-2.137-2.078.118-1.106 1.153-1.584 1.848-1.727l2.17-.345c0-.539-.29-.956-1.064-1.006s-1.21.305-1.571 1.017l-1.124-.605c1.218-2.631 5.029-1.764 5.029.414v4.207zm-1.27-2.86c.006.396-.062 1.112-.819 1.59-.587.37-1.841.299-1.903-.395-.049-.555.461-.791.906-.898l1.816-.297zm72.662 2.86h-1.27v-.487c-.276.201-.864.609-1.881.609-1.202 0-2.274-.794-2.137-2.078.118-1.106 1.153-1.584 1.848-1.727l2.17-.345c0-.539-.29-.956-1.064-1.006s-1.21.305-1.571 1.017l-1.124-.605c1.218-2.631 5.029-1.764 5.029.414v4.207zm-1.27-2.86c.006.396-.062 1.112-.82 1.59-.587.37-1.841.299-1.903-.395-.049-.555.461-.791.906-.898l1.816-.297zM99.096 10.149H97.85v-8.45h1.246v4.895l2.68-2.559h1.738l-2.633 2.535 2.715 3.578h-1.556l-2.077-2.707-.867.844v1.863zm6.053-6.114h-1.255v6.113h1.255V4.035zm-59.2 0h-1.255v6.113h1.255V4.035zm5.584 6.113V1.697h1.255v2.695c.361-.346 1-.485 1.47-.485 1.452 0 2.477 1.082 2.457 2.448v3.792h-1.27v-3.68c0-.408-.214-1.339-1.315-1.339-.968 0-1.342.756-1.342 1.339v3.681h-1.255zm-4.76-4.894V4.039h.621a.45.45 0 0 0 .45-.45v-.855h1.251v1.305h1.309v1.215h-1.309v3.109c0 .293.105.664.648.664.365 0 .531-.035.736-.07v1.137s-.361.113-.857.113c-1.398 0-1.777-1.051-1.777-1.788V5.254h-1.071zM36.528 4.039h-1.394l2.191 6.106h1.125l1.234-3.918 1.238 3.918h1.129l2.188-6.106h-1.383l-1.359 3.93-1.256-3.93h-1.124l-1.242 3.957-1.348-3.957zM26.212 7.141c-.02 1.566 1.187 3.129 3.223 3.129 1.566 0 2.383-.918 2.734-1.719L31.172 8c-.315.399-.801 1.094-1.738 1.094-1.145 0-1.825-.781-1.891-1.52h4.625c.074-.284.148-.995-.03-1.559-.336-1.064-1.221-2.102-2.839-2.102s-3.088 1.152-3.088 3.227zm1.363-.75h3.348c-.055-.43-.566-1.301-1.623-1.301a1.79 1.79 0 0 0-1.725 1.301zm-8.758.75c.038 1.758 1.277 3.133 3.145 3.133 1.074 0 1.723-.477 1.961-.672v.547h1.242V1.703h-1.258v2.888c-.414-.36-1.062-.68-1.93-.68-1.91 0-3.198 1.473-3.16 3.23zm1.309-.08c0 1.119.723 1.978 1.836 1.978a1.88 1.88 0 0 0 1.94-1.904c0-1.371-1.011-1.99-1.972-1.99s-1.805.798-1.805 1.916zm76.683-.028C96.771 5.275 95.532 3.9 93.664 3.9c-1.074 0-1.723.477-1.961.672v-.547h-1.242v8.22h1.258V9.583c.414.36 1.063.68 1.93.68 1.91 0 3.198-1.473 3.16-3.23zm-1.309.08c0-1.119-.723-1.978-1.836-1.978a1.88 1.88 0 0 0-1.94 1.904c0 1.371 1.011 1.99 1.972 1.99S95.5 8.231 95.5 7.113zM106.441 10.173V4.036h1.254v.382c.361-.346 1-.485 1.47-.485 1.452 0 2.477 1.082 2.457 2.448v3.792h-1.27V6.492c0-.408-.214-1.339-1.315-1.339-.969 0-1.342.756-1.342 1.339v3.681h-1.254zm-30.383-.021V1.824h1.084l4.215 5.777V1.824h1.32v8.328h-1.094l-4.207-5.796v5.796h-1.319zM5.24 10.149H4V2.377h1.014l2.664 3.597 2.654-3.592h1.03v7.766h-1.256V4.762L7.678 8.068 5.24 4.742v5.407z" transform="translate(896, 646.9999389648438)" fill="#80808088" stroke="none"></path></svg>